<svg width="800" height="800" viewBox="0 0 800 800" fill="none" xmlns="http://www.w3.org/2000/svg">
<rect width="800" height="800" fill="#1E1E1E"/>
<rect width="800" height="800" rx="140" fill="#515558"/>
<path d="M356.856 194.058C371.935 193.412 384.261 198.588 395.277 208.773C413.456 225.579 413.792 242.793 413.448 265.861C413.237 279.868 412.917 295.802 413.616 309.628C411.269 310.198 408.886 311.169 406.632 312.071C361.492 330.121 322.844 361.847 286.875 394.428C279.004 401.557 270.708 408.723 263.684 416.73C257.028 424.322 254.728 439.204 259.234 448.414C263.983 458.02 274.175 465.015 281.539 472.554C286.659 477.794 292.854 482.441 298.263 487.392C324.37 510.891 352.273 532.235 383.564 547.959C392.519 552.458 404.218 556.404 413.718 559.793C413.362 562.625 413.312 566.279 413.214 569.179C412.679 585.155 405.155 598.267 397.972 612.115L384.726 637.686C378.788 649.191 373.146 660.768 367.078 672.25C361.642 682.529 353.023 683.991 342.446 683.967C335.699 683.951 327.483 684.456 320.842 683.326C304.145 679.993 305.386 663.144 304.536 649.664C303.277 629.69 292.362 619.651 278.189 607.593C266.803 597.906 265.566 602.136 252.441 603.61C226.162 606.639 199.805 598.643 179.362 581.441C163.161 567.813 150.482 545.147 147.711 523.803C146.707 520.233 147.45 506.849 145.708 504.282C134.061 487.136 124.44 473.796 122.381 451.542C119.871 424.41 129.95 400.219 146.894 379.359C143.463 369.073 141.048 361.598 140.718 350.482C139.714 316.747 159.015 285.375 186.603 268.048C191.957 264.685 198.3 263.116 203.887 260.23L204.308 260.008C220.217 221.38 258.934 197.182 299.806 200.688C308.89 201.467 317.561 204.391 326.034 207.685C327.987 206.482 330.982 204.151 333.061 202.747C340.998 197.383 347.549 195.25 356.856 194.058Z" fill="#A9A8AA"/>
<path d="M333.305 258.507L333.861 258.454C339.707 257.945 345.622 261.049 345.918 267.835C346.235 275.101 336.352 279.631 331.5 283.772C320.559 293.111 310.218 305.07 306.556 319.554C305.235 325.233 305.969 331.43 305.205 337.107C302.815 354.871 287.54 345.208 278.241 342.137C275.2 341.137 272.037 340.578 268.845 340.474C251.198 339.802 236.687 351.442 228.982 367.165C226.182 372.88 225.043 379.556 220.481 383.876C212.115 389.187 202.326 383.013 205.479 372.192C210.637 354.488 221.086 339.704 236.508 330.058C252.612 319.986 268.502 320.072 286.18 324.485C289.982 299.437 301.837 283.039 321.03 267.375C325.364 263.838 328.108 261.053 333.305 258.507Z" fill="#515558"/>
<path d="M205.224 453.998C210.384 453.818 213.172 455.124 215.175 460.211C217.246 465.475 218.384 471.028 220.39 476.336C227.754 495.596 244.153 509.71 263.931 513.8C272.845 515.574 281.886 515.042 290.582 519.448C297.273 522.837 314.473 531.594 309.671 542.138C308.196 545.379 305.601 546.966 302.325 547.963C293.926 546.937 288.302 538.076 279.794 535.08C265.998 530.228 255.1 531.663 241.502 524.788C222.462 515.162 207.574 498.681 200.261 478.13C197.035 469.065 193.672 457.575 205.224 453.998Z" fill="#515558"/>
<path d="M443.718 326.696C443.788 326.69 443.859 326.684 443.929 326.677C513.632 323.504 568.093 376.098 618.441 418.06C628.78 426.677 631.855 436.82 621.652 446.871C576.788 491.058 527.573 540.484 461.3 542.09C414.612 543.296 383.252 528.253 345.744 500.616C334.856 492.596 322.863 483.206 312.802 474.168C305.47 467.546 298.176 460.876 290.922 454.162C286.862 450.389 277.048 442.541 277.15 436.724C277.293 428.54 288.246 419.879 293.857 414.851C334.485 378.443 386.898 329.598 443.718 326.696Z" fill="#A9A8AA"/>
<path d="M450.679 366.637C487.398 364.36 518.917 393.133 520.972 430.795C523.023 468.46 494.82 500.656 458.085 502.587C421.589 504.502 390.445 475.811 388.405 438.391C386.366 400.972 414.202 368.9 450.679 366.637Z" fill="#515558"/>
<ellipse cx="453.201" cy="434.237" rx="40.201" ry="41.2371" fill="#EA8A3C"/>
<path d="M603.255 347.959C603.255 327.651 599.356 307.543 591.78 288.781C584.204 270.019 573.099 252.972 559.101 238.612C545.102 224.253 528.483 212.862 510.193 205.091C491.902 197.319 472.299 193.32 452.502 193.32" stroke="#EA8A3C" stroke-width="40" stroke-linecap="round"/>
<path d="M678.632 347.959C678.632 317.497 672.783 287.335 661.419 259.192C650.055 231.049 633.398 205.479 612.4 183.939C591.402 162.4 566.473 145.314 539.038 133.657C511.603 122 482.197 116 452.502 116" stroke="#EA8A3C" stroke-width="40" stroke-linecap="round"/>
</svg>
